<svg width="54" height="82" viewBox="0 0 54 82" fill="none" xmlns="http://www.w3.org/2000/svg">
<g clip-path="url(#clip0_9_26)">
<line x1="28.25" y1="16" x2="28.25" y2="73" stroke="black" stroke-width="1.5"/>
<ellipse cx="21.5" cy="72.2912" rx="8.35795" ry="6.82726" transform="rotate(-25.8858 21.5 72.2912)" fill="black"/>
<path d="M43.729 24.1733C41.3263 23.1792 32.6865 19.9716 29 17.5V23.1622C30.6385 23.9037 29.5974 24.1733 33.8983 25.6563C38.1993 27.1393 43.1691 27.412 45.4187 28.98C47.6683 30.5479 48.5 35.6555 49.0392 38.6555C49.0392 38.6555 50.4706 34.6111 49.8391 32.06C49.2076 29.5089 47.3132 25.6563 43.729 24.1733Z" fill="black" stroke="black" stroke-width="1.5"/>
<path d="M28.3523 13.1193C27.7898 13.1193 27.2884 13.0227 26.848 12.8295C26.4105 12.6364 26.0625 12.3679 25.804 12.0241C25.5483 11.6776 25.4091 11.2756 25.3864 10.8182H26.4602C26.483 11.0994 26.5795 11.3423 26.75 11.5469C26.9205 11.7486 27.1435 11.9048 27.419 12.0156C27.6946 12.1264 28 12.1818 28.3352 12.1818C28.7102 12.1818 29.0426 12.1165 29.3324 11.9858C29.6222 11.8551 29.8494 11.6733 30.0142 11.4403C30.179 11.2074 30.2614 10.9375 30.2614 10.6307C30.2614 10.3097 30.1818 10.027 30.0227 9.78267C29.8636 9.53551 29.6307 9.34233 29.3239 9.20313C29.017 9.06392 28.642 8.99432 28.1989 8.99432H27.5V8.05682H28.1989C28.5455 8.05682 28.8494 7.99432 29.1108 7.86932C29.375 7.74432 29.581 7.56818 29.7287 7.34091C29.8793 7.11364 29.9545 6.84659 29.9545 6.53977C29.9545 6.24432 29.8892 5.98722 29.7585 5.76847C29.6278 5.54972 29.4432 5.37926 29.2045 5.2571C28.9687 5.13494 28.6903 5.07386 28.3693 5.07386C28.0682 5.07386 27.7841 5.12926 27.517 5.24006C27.2528 5.34801 27.0369 5.50568 26.8693 5.71307C26.7017 5.91761 26.6108 6.16477 26.5966 6.45455H25.5739C25.5909 5.99716 25.7287 5.59659 25.9872 5.25284C26.2457 4.90625 26.5838 4.63636 27.0014 4.44318C27.4219 4.25 27.8835 4.15341 28.3864 4.15341C28.9261 4.15341 29.3892 4.26278 29.7756 4.48153C30.1619 4.69744 30.4588 4.98295 30.6662 5.33807C30.8736 5.69318 30.9773 6.07671 30.9773 6.48864C30.9773 6.98011 30.848 7.39915 30.5895 7.74574C30.3338 8.09233 29.9858 8.33239 29.5455 8.46591V8.53409C30.0966 8.625 30.527 8.85938 30.8366 9.23722C31.1463 9.61222 31.3011 10.0767 31.3011 10.6307C31.3011 11.1051 31.1719 11.5313 30.9134 11.9091C30.6577 12.2841 30.3082 12.5795 29.8651 12.7955C29.4219 13.0114 28.9176 13.1193 28.3523 13.1193Z" fill="black"/>
</g>
<defs>
<clipPath id="clip0_9_26">
<rect width="54" height="82" fill="white"/>
</clipPath>
</defs>
</svg>
