<svg width="32" height="32" viewBox="0 0 32 32" fill="none" xmlns="http://www.w3.org/2000/svg">
<path d="M19.7427 14.4469L24.9147 7.25125C25.3617 6.62987 25.6046 5.88975 25.6046 5.13062V2.88313H27.0991V0H4.90094V2.88313H6.39544V5.13062C6.39544 5.88969 6.63831 6.62987 7.08538 7.25125L12.2574 14.4469C12.4426 14.7054 12.5369 15.0004 12.5376 15.3009V16.6984C12.5369 16.9989 12.4426 17.2941 12.2574 17.5525L7.08538 24.7488C6.63825 25.3702 6.39544 26.1102 6.39544 26.8687V29.1169H4.90094V32H27.099V29.1169H25.6046V26.8687C25.6046 26.1103 25.3616 25.3702 24.9146 24.7489L19.7427 17.5525C19.5575 17.294 19.4626 16.9989 19.4626 16.6984V15.3009C19.4626 15.0004 19.5575 14.7054 19.7427 14.4469ZM24.1631 28.8286H7.83706V26.8687C7.83706 26.4169 7.98025 25.9739 8.25557 25.59L13.4276 18.3937C13.7844 17.8978 13.9791 17.3056 13.9791 16.6984V15.3009C13.9791 14.6938 13.7844 14.1008 13.4276 13.6057L8.25625 6.41006C7.98019 6.02537 7.837 5.58306 7.837 5.13062V3.17144H24.163V5.13062C24.1623 5.58306 24.0198 6.02537 23.7437 6.41006L18.5717 13.6057C18.2156 14.1008 18.0209 14.6938 18.0209 15.3009V16.6984C18.0209 17.3056 18.2155 17.8978 18.5717 18.3937L23.7444 25.59C24.0198 25.9739 24.1623 26.4169 24.163 26.8687V28.8286H24.1631Z" fill="#F9FAFB"/>
<path d="M14.7668 14.5581H17.2334C17.3379 14.0384 17.5516 13.5433 17.8697 13.1009L21.5879 7.92756H10.4122L14.1305 13.1009C14.4486 13.5433 14.6616 14.0385 14.7668 14.5581Z" fill="#F9FAFB"/>
<path d="M15.4221 23.8492L11.3083 27.9637H20.6917L16.5779 23.8492C16.2586 23.5304 15.7416 23.5304 15.4221 23.8492Z" fill="#F9FAFB"/>
<path d="M15.977 15.4997C15.6215 15.4997 15.3332 15.7881 15.3332 16.1442C15.3332 16.4997 15.6216 16.7879 15.977 16.7879C16.3324 16.7879 16.6214 16.4997 16.6214 16.1442C16.6214 15.7881 16.3324 15.4997 15.977 15.4997Z" fill="#F9FAFB"/>
<path d="M15.977 18.0946C15.6215 18.0946 15.3332 18.3829 15.3332 18.7383C15.3332 19.0944 15.6216 19.3828 15.977 19.3828C16.3324 19.3828 16.6214 19.0944 16.6214 18.7383C16.6214 18.3829 16.3324 18.0946 15.977 18.0946Z" fill="#F9FAFB"/>
<path d="M15.977 20.7653C15.6215 20.7653 15.3332 21.0536 15.3332 21.4097C15.3332 21.7652 15.6216 22.0543 15.977 22.0543C16.3324 22.0543 16.6214 21.7652 16.6214 21.4097C16.6214 21.0536 16.3324 20.7653 15.977 20.7653Z" fill="#F9FAFB"/>
</svg>
